<svg width="76" height="16" viewBox="0 0 76 16" fill="none" xmlns="http://www.w3.org/2000/svg">
<path d="M4.236 12.16C3.468 12.16 2.78533 12.0533 2.188 11.84C1.59067 11.6267 1.02 11.2747 0.476 10.784C0.358667 10.6987 0.268 10.5973 0.204 10.48C0.150667 10.352 0.124 10.224 0.124 10.096C0.124 9.89333 0.198667 9.712 0.348 9.552C0.497333 9.392 0.684 9.312 0.908 9.312C1.07867 9.312 1.23867 9.37067 1.388 9.488C1.79333 9.86133 2.21467 10.144 2.652 10.336C3.1 10.528 3.62267 10.624 4.22 10.624C4.64667 10.624 5.036 10.5547 5.388 10.416C5.75067 10.2773 6.03867 10.0907 6.252 9.856C6.46533 9.62133 6.572 9.34933 6.572 9.04C6.572 8.656 6.46 8.34133 6.236 8.096C6.02267 7.84 5.708 7.632 5.292 7.472C4.88667 7.30133 4.396 7.15733 3.82 7.04C3.28667 6.944 2.80667 6.81067 2.38 6.64C1.964 6.46933 1.60667 6.256 1.308 6C1.00933 5.73333 0.78 5.41867 0.62 5.056C0.46 4.69333 0.38 4.272 0.38 3.792C0.38 3.14133 0.550667 2.58133 0.892 2.112C1.23333 1.64267 1.69733 1.28 2.284 1.024C2.87067 0.767999 3.532 0.639999 4.268 0.639999C4.94 0.639999 5.56933 0.746666 6.156 0.959999C6.74267 1.16267 7.21733 1.44 7.58 1.792C7.836 2.016 7.964 2.256 7.964 2.512C7.964 2.704 7.884 2.88533 7.724 3.056C7.57467 3.216 7.39867 3.296 7.196 3.296C7.04667 3.296 6.91867 3.25333 6.812 3.168C6.64133 2.98667 6.412 2.82667 6.124 2.688C5.836 2.53867 5.52667 2.416 5.196 2.32C4.876 2.224 4.56667 2.176 4.268 2.176C3.788 2.176 3.37733 2.24533 3.036 2.384C2.69467 2.512 2.43333 2.69333 2.252 2.928C2.07067 3.152 1.98 3.41867 1.98 3.728C1.98 4.09067 2.08133 4.38933 2.284 4.624C2.49733 4.85867 2.79067 5.05067 3.164 5.2C3.53733 5.33867 3.964 5.46667 4.444 5.584C5.03067 5.712 5.55333 5.856 6.012 6.016C6.48133 6.176 6.876 6.384 7.196 6.64C7.516 6.88533 7.76133 7.19467 7.932 7.568C8.10267 7.94133 8.188 8.40533 8.188 8.96C8.188 9.6 8.00667 10.16 7.644 10.64C7.28133 11.12 6.80133 11.4933 6.204 11.76C5.61733 12.0267 4.96133 12.16 4.236 12.16ZM14.2194 3.44C14.9554 3.44 15.526 3.6 15.9314 3.92C16.3367 4.22933 16.6194 4.65067 16.7794 5.184C16.95 5.71733 17.0354 6.304 17.0354 6.944V11.184C17.0354 11.4187 16.9554 11.616 16.7954 11.776C16.646 11.9253 16.4594 12 16.2354 12C16.0007 12 15.8087 11.9253 15.6594 11.776C15.51 11.616 15.4354 11.4187 15.4354 11.184V6.944C15.4354 6.57067 15.382 6.22933 15.2754 5.92C15.1794 5.61067 15.0034 5.36533 14.7474 5.184C14.502 5.00267 14.1554 4.912 13.7074 4.912C13.2914 4.912 12.918 5.00267 12.5874 5.184C12.2674 5.36533 12.0167 5.61067 11.8354 5.92C11.6647 6.22933 11.5794 6.57067 11.5794 6.944V11.184C11.5794 11.4187 11.4994 11.616 11.3394 11.776C11.19 11.9253 11.0034 12 10.7794 12C10.5447 12 10.3527 11.9253 10.2034 11.776C10.054 11.616 9.97938 11.4187 9.97938 11.184V0.976C9.97938 0.741333 10.054 0.549333 10.2034 0.4C10.3527 0.24 10.5447 0.16 10.7794 0.16C11.0034 0.16 11.19 0.24 11.3394 0.4C11.4994 0.549333 11.5794 0.741333 11.5794 0.976V5.344L11.2914 5.504C11.366 5.26933 11.4887 5.02933 11.6594 4.784C11.8407 4.53867 12.0594 4.31467 12.3154 4.112C12.582 3.90933 12.8754 3.74933 13.1954 3.632C13.5154 3.504 13.8567 3.44 14.2194 3.44ZM27.3246 7.792C27.3246 8.64533 27.138 9.40267 26.7646 10.064C26.3913 10.7147 25.8846 11.2267 25.2446 11.6C24.6046 11.9733 23.8846 12.16 23.0846 12.16C22.2846 12.16 21.5646 11.9733 20.9246 11.6C20.2846 11.2267 19.7726 10.7147 19.3886 10.064C19.0153 9.40267 18.8286 8.64533 18.8286 7.792C18.8286 6.928 19.0153 6.17067 19.3886 5.52C19.7726 4.85867 20.2846 4.34133 20.9246 3.968C21.5646 3.584 22.2846 3.392 23.0846 3.392C23.8846 3.392 24.6046 3.584 25.2446 3.968C25.8846 4.34133 26.3913 4.85867 26.7646 5.52C27.138 6.17067 27.3246 6.928 27.3246 7.792ZM25.7246 7.792C25.7246 7.20533 25.6073 6.69867 25.3726 6.272C25.138 5.83467 24.818 5.49333 24.4126 5.248C24.018 4.992 23.5753 4.864 23.0846 4.864C22.594 4.864 22.146 4.992 21.7406 5.248C21.3353 5.49333 21.0153 5.83467 20.7806 6.272C20.546 6.69867 20.4286 7.20533 20.4286 7.792C20.4286 8.35733 20.546 8.85867 20.7806 9.296C21.0153 9.73333 21.3353 10.0747 21.7406 10.32C22.146 10.5653 22.594 10.688 23.0846 10.688C23.5753 10.688 24.018 10.5653 24.4126 10.32C24.818 10.0747 25.138 9.73333 25.3726 9.296C25.6073 8.85867 25.7246 8.35733 25.7246 7.792ZM33.3756 3.44C34.1223 3.44 34.7836 3.62667 35.3596 4C35.9463 4.37333 36.4103 4.88533 36.7516 5.536C37.093 6.176 37.2636 6.92267 37.2636 7.776C37.2636 8.62933 37.093 9.38667 36.7516 10.048C36.4103 10.6987 35.9516 11.2107 35.3756 11.584C34.7996 11.9573 34.149 12.144 33.4236 12.144C33.0183 12.144 32.6343 12.08 32.2716 11.952C31.909 11.824 31.589 11.6587 31.3116 11.456C31.0343 11.2427 30.805 11.0187 30.6236 10.784C30.453 10.5493 30.3463 10.3307 30.3036 10.128L30.7356 9.92V14.384C30.7356 14.6187 30.6556 14.8107 30.4956 14.96C30.3463 15.12 30.1596 15.2 29.9356 15.2C29.701 15.2 29.509 15.12 29.3596 14.96C29.2103 14.8107 29.1356 14.6187 29.1356 14.384V4.368C29.1356 4.144 29.2103 3.952 29.3596 3.792C29.509 3.632 29.701 3.552 29.9356 3.552C30.1596 3.552 30.3463 3.632 30.4956 3.792C30.6556 3.952 30.7356 4.144 30.7356 4.368V5.472L30.4796 5.328C30.5116 5.12533 30.613 4.91733 30.7836 4.704C30.9543 4.48 31.1676 4.272 31.4236 4.08C31.6903 3.888 31.989 3.73333 32.3196 3.616C32.661 3.49867 33.013 3.44 33.3756 3.44ZM33.1996 4.912C32.6876 4.912 32.2396 5.04 31.8556 5.296C31.4823 5.54133 31.189 5.87733 30.9756 6.304C30.7623 6.73067 30.6556 7.22133 30.6556 7.776C30.6556 8.32 30.7623 8.816 30.9756 9.264C31.189 9.70133 31.4823 10.048 31.8556 10.304C32.2396 10.5493 32.6876 10.672 33.1996 10.672C33.701 10.672 34.1383 10.5493 34.5116 10.304C34.885 10.048 35.1783 9.70133 35.3916 9.264C35.6156 8.816 35.7276 8.32 35.7276 7.776C35.7276 7.232 35.6156 6.74667 35.3916 6.32C35.1783 5.88267 34.885 5.54133 34.5116 5.296C34.1383 5.04 33.701 4.912 33.1996 4.912ZM52.1023 0.799999C52.3156 0.799999 52.4863 0.874666 52.6143 1.024C52.7529 1.16267 52.8223 1.33867 52.8223 1.552V11.184C52.8223 11.4187 52.7423 11.616 52.5823 11.776C52.4329 11.9253 52.2409 12 52.0063 12C51.8996 12 51.7823 11.9787 51.6543 11.936C51.5369 11.8933 51.4463 11.8347 51.3823 11.76L44.8063 3.232L45.1743 3.024V11.264C45.1743 11.4667 45.1049 11.6427 44.9663 11.792C44.8276 11.9307 44.6516 12 44.4383 12C44.2143 12 44.0329 11.9307 43.8943 11.792C43.7663 11.6427 43.7023 11.4667 43.7023 11.264V1.616C43.7023 1.37067 43.7823 1.17333 43.9423 1.024C44.1023 0.874666 44.2943 0.799999 44.5182 0.799999C44.6356 0.799999 44.7583 0.826666 44.8863 0.879999C45.0249 0.922666 45.1263 0.991999 45.1903 1.088L51.6063 9.44L51.3663 9.664V1.552C51.3663 1.33867 51.4356 1.16267 51.5743 1.024C51.7129 0.874666 51.8889 0.799999 52.1023 0.799999ZM63.3246 7.792C63.3246 8.64533 63.138 9.40267 62.7646 10.064C62.3913 10.7147 61.8846 11.2267 61.2446 11.6C60.6046 11.9733 59.8846 12.16 59.0846 12.16C58.2846 12.16 57.5646 11.9733 56.9246 11.6C56.2846 11.2267 55.7726 10.7147 55.3886 10.064C55.0153 9.40267 54.8286 8.64533 54.8286 7.792C54.8286 6.928 55.0153 6.17067 55.3886 5.52C55.7726 4.85867 56.2846 4.34133 56.9246 3.968C57.5646 3.584 58.2846 3.392 59.0846 3.392C59.8846 3.392 60.6046 3.584 61.2446 3.968C61.8846 4.34133 62.3913 4.85867 62.7646 5.52C63.138 6.17067 63.3246 6.928 63.3246 7.792ZM61.7246 7.792C61.7246 7.20533 61.6073 6.69867 61.3726 6.272C61.138 5.83467 60.818 5.49333 60.4126 5.248C60.018 4.992 59.5753 4.864 59.0846 4.864C58.594 4.864 58.146 4.992 57.7406 5.248C57.3353 5.49333 57.0153 5.83467 56.7806 6.272C56.546 6.69867 56.4286 7.20533 56.4286 7.792C56.4286 8.35733 56.546 8.85867 56.7806 9.296C57.0153 9.73333 57.3353 10.0747 57.7406 10.32C58.146 10.5653 58.594 10.688 59.0846 10.688C59.5753 10.688 60.018 10.5653 60.4126 10.32C60.818 10.0747 61.138 9.73333 61.3726 9.296C61.6073 8.85867 61.7246 8.35733 61.7246 7.792ZM74.9436 3.504C75.1463 3.504 75.3223 3.584 75.4716 3.744C75.6316 3.89333 75.7116 4.09067 75.7116 4.336C75.7116 4.38933 75.7063 4.44267 75.6956 4.496C75.685 4.54933 75.669 4.59733 75.6476 4.64L73.1996 11.488C73.1356 11.6693 73.0236 11.808 72.8636 11.904C72.7036 11.9893 72.5383 12.0213 72.3676 12C72.0583 11.9787 71.829 11.808 71.6796 11.488L69.8716 6.688L70.2396 6.72L68.5756 11.488C68.4263 11.808 68.197 11.9787 67.8876 12C67.7276 12.0213 67.5623 11.9893 67.3916 11.904C67.2316 11.808 67.1196 11.6693 67.0556 11.488L64.5916 4.64C64.549 4.544 64.5276 4.44267 64.5276 4.336C64.5276 4.112 64.597 3.92 64.7356 3.76C64.885 3.58933 65.0823 3.504 65.3276 3.504C65.4983 3.504 65.6476 3.54667 65.7756 3.632C65.9143 3.71733 66.0103 3.84533 66.0636 4.016L68.1116 9.792L67.7436 9.76L69.4076 5.392C69.5463 5.06133 69.7916 4.896 70.1436 4.896C70.3356 4.896 70.485 4.93867 70.5916 5.024C70.6983 5.10933 70.7836 5.232 70.8476 5.392L72.5436 9.776L72.1116 9.824L74.1756 4.016C74.2823 3.67467 74.5383 3.504 74.9436 3.504Z" fill="white"/>
</svg>
