<svg width="143" height="52" viewBox="0 0 143 52" fill="none" xmlns="http://www.w3.org/2000/svg">
<path d="M0 0H139C140.886 0 141.828 0 142.414 0.585786C143 1.17157 143 2.11438 143 4V48C143 49.8856 143 50.8284 142.414 51.4142C141.828 52 140.886 52 139 52H0V0Z" fill="#3BB77E"/>
<path d="M24.236 32.16C23.468 32.16 22.7853 32.0533 22.188 31.84C21.5907 31.6267 21.02 31.2747 20.476 30.784C20.3587 30.6987 20.268 30.5973 20.204 30.48C20.1507 30.352 20.124 30.224 20.124 30.096C20.124 29.8933 20.1987 29.712 20.348 29.552C20.4973 29.392 20.684 29.312 20.908 29.312C21.0787 29.312 21.2387 29.3707 21.388 29.488C21.7933 29.8613 22.2147 30.144 22.652 30.336C23.1 30.528 23.6227 30.624 24.22 30.624C24.6467 30.624 25.036 30.5547 25.388 30.416C25.7507 30.2773 26.0387 30.0907 26.252 29.856C26.4653 29.6213 26.572 29.3493 26.572 29.04C26.572 28.656 26.46 28.3413 26.236 28.096C26.0227 27.84 25.708 27.632 25.292 27.472C24.8867 27.3013 24.396 27.1573 23.82 27.04C23.2867 26.944 22.8067 26.8107 22.38 26.64C21.964 26.4693 21.6067 26.256 21.308 26C21.0093 25.7333 20.78 25.4187 20.62 25.056C20.46 24.6933 20.38 24.272 20.38 23.792C20.38 23.1413 20.5507 22.5813 20.892 22.112C21.2333 21.6427 21.6973 21.28 22.284 21.024C22.8707 20.768 23.532 20.64 24.268 20.64C24.94 20.64 25.5693 20.7467 26.156 20.96C26.7427 21.1627 27.2173 21.44 27.58 21.792C27.836 22.016 27.964 22.256 27.964 22.512C27.964 22.704 27.884 22.8853 27.724 23.056C27.5747 23.216 27.3987 23.296 27.196 23.296C27.0467 23.296 26.9187 23.2533 26.812 23.168C26.6413 22.9867 26.412 22.8267 26.124 22.688C25.836 22.5387 25.5267 22.416 25.196 22.32C24.876 22.224 24.5667 22.176 24.268 22.176C23.788 22.176 23.3773 22.2453 23.036 22.384C22.6947 22.512 22.4333 22.6933 22.252 22.928C22.0707 23.152 21.98 23.4187 21.98 23.728C21.98 24.0907 22.0813 24.3893 22.284 24.624C22.4973 24.8587 22.7907 25.0507 23.164 25.2C23.5373 25.3387 23.964 25.4667 24.444 25.584C25.0307 25.712 25.5533 25.856 26.012 26.016C26.4813 26.176 26.876 26.384 27.196 26.64C27.516 26.8853 27.7613 27.1947 27.932 27.568C28.1027 27.9413 28.188 28.4053 28.188 28.96C28.188 29.6 28.0067 30.16 27.644 30.64C27.2813 31.12 26.8013 31.4933 26.204 31.76C25.6173 32.0267 24.9613 32.16 24.236 32.16ZM34.2194 23.44C34.9554 23.44 35.526 23.6 35.9314 23.92C36.3367 24.2293 36.6194 24.6507 36.7794 25.184C36.95 25.7173 37.0354 26.304 37.0354 26.944V31.184C37.0354 31.4187 36.9554 31.616 36.7954 31.776C36.646 31.9253 36.4594 32 36.2354 32C36.0007 32 35.8087 31.9253 35.6594 31.776C35.51 31.616 35.4354 31.4187 35.4354 31.184V26.944C35.4354 26.5707 35.382 26.2293 35.2754 25.92C35.1794 25.6107 35.0034 25.3653 34.7474 25.184C34.502 25.0027 34.1554 24.912 33.7074 24.912C33.2914 24.912 32.918 25.0027 32.5874 25.184C32.2674 25.3653 32.0167 25.6107 31.8354 25.92C31.6647 26.2293 31.5794 26.5707 31.5794 26.944V31.184C31.5794 31.4187 31.4994 31.616 31.3394 31.776C31.19 31.9253 31.0034 32 30.7794 32C30.5447 32 30.3527 31.9253 30.2034 31.776C30.054 31.616 29.9794 31.4187 29.9794 31.184V20.976C29.9794 20.7413 30.054 20.5493 30.2034 20.4C30.3527 20.24 30.5447 20.16 30.7794 20.16C31.0034 20.16 31.19 20.24 31.3394 20.4C31.4994 20.5493 31.5794 20.7413 31.5794 20.976V25.344L31.2914 25.504C31.366 25.2693 31.4887 25.0293 31.6594 24.784C31.8407 24.5387 32.0594 24.3147 32.3154 24.112C32.582 23.9093 32.8754 23.7493 33.1954 23.632C33.5154 23.504 33.8567 23.44 34.2194 23.44ZM47.3246 27.792C47.3246 28.6453 47.138 29.4027 46.7646 30.064C46.3913 30.7147 45.8846 31.2267 45.2446 31.6C44.6046 31.9733 43.8846 32.16 43.0846 32.16C42.2846 32.16 41.5646 31.9733 40.9246 31.6C40.2846 31.2267 39.7726 30.7147 39.3886 30.064C39.0153 29.4027 38.8286 28.6453 38.8286 27.792C38.8286 26.928 39.0153 26.1707 39.3886 25.52C39.7726 24.8587 40.2846 24.3413 40.9246 23.968C41.5646 23.584 42.2846 23.392 43.0846 23.392C43.8846 23.392 44.6046 23.584 45.2446 23.968C45.8846 24.3413 46.3913 24.8587 46.7646 25.52C47.138 26.1707 47.3246 26.928 47.3246 27.792ZM45.7246 27.792C45.7246 27.2053 45.6073 26.6987 45.3726 26.272C45.138 25.8347 44.818 25.4933 44.4126 25.248C44.018 24.992 43.5753 24.864 43.0846 24.864C42.594 24.864 42.146 24.992 41.7406 25.248C41.3353 25.4933 41.0153 25.8347 40.7806 26.272C40.546 26.6987 40.4286 27.2053 40.4286 27.792C40.4286 28.3573 40.546 28.8587 40.7806 29.296C41.0153 29.7333 41.3353 30.0747 41.7406 30.32C42.146 30.5653 42.594 30.688 43.0846 30.688C43.5753 30.688 44.018 30.5653 44.4126 30.32C44.818 30.0747 45.138 29.7333 45.3726 29.296C45.6073 28.8587 45.7246 28.3573 45.7246 27.792ZM53.3756 23.44C54.1223 23.44 54.7836 23.6267 55.3596 24C55.9463 24.3733 56.4103 24.8853 56.7516 25.536C57.093 26.176 57.2636 26.9227 57.2636 27.776C57.2636 28.6293 57.093 29.3867 56.7516 30.048C56.4103 30.6987 55.9516 31.2107 55.3756 31.584C54.7996 31.9573 54.149 32.144 53.4236 32.144C53.0183 32.144 52.6343 32.08 52.2716 31.952C51.909 31.824 51.589 31.6587 51.3116 31.456C51.0343 31.2427 50.805 31.0187 50.6236 30.784C50.453 30.5493 50.3463 30.3307 50.3036 30.128L50.7356 29.92V34.384C50.7356 34.6187 50.6556 34.8107 50.4956 34.96C50.3463 35.12 50.1596 35.2 49.9356 35.2C49.701 35.2 49.509 35.12 49.3596 34.96C49.2103 34.8107 49.1356 34.6187 49.1356 34.384V24.368C49.1356 24.144 49.2103 23.952 49.3596 23.792C49.509 23.632 49.701 23.552 49.9356 23.552C50.1596 23.552 50.3463 23.632 50.4956 23.792C50.6556 23.952 50.7356 24.144 50.7356 24.368V25.472L50.4796 25.328C50.5116 25.1253 50.613 24.9173 50.7836 24.704C50.9543 24.48 51.1676 24.272 51.4236 24.08C51.6903 23.888 51.989 23.7333 52.3196 23.616C52.661 23.4987 53.013 23.44 53.3756 23.44ZM53.1996 24.912C52.6876 24.912 52.2396 25.04 51.8556 25.296C51.4823 25.5413 51.189 25.8773 50.9756 26.304C50.7623 26.7307 50.6556 27.2213 50.6556 27.776C50.6556 28.32 50.7623 28.816 50.9756 29.264C51.189 29.7013 51.4823 30.048 51.8556 30.304C52.2396 30.5493 52.6876 30.672 53.1996 30.672C53.701 30.672 54.1383 30.5493 54.5116 30.304C54.885 30.048 55.1783 29.7013 55.3916 29.264C55.6156 28.816 55.7276 28.32 55.7276 27.776C55.7276 27.232 55.6156 26.7467 55.3916 26.32C55.1783 25.8827 54.885 25.5413 54.5116 25.296C54.1383 25.04 53.701 24.912 53.1996 24.912ZM72.1023 20.8C72.3156 20.8 72.4863 20.8747 72.6143 21.024C72.7529 21.1627 72.8223 21.3387 72.8223 21.552V31.184C72.8223 31.4187 72.7423 31.616 72.5823 31.776C72.4329 31.9253 72.2409 32 72.0063 32C71.8996 32 71.7823 31.9787 71.6543 31.936C71.5369 31.8933 71.4463 31.8347 71.3823 31.76L64.8063 23.232L65.1743 23.024V31.264C65.1743 31.4667 65.1049 31.6427 64.9663 31.792C64.8276 31.9307 64.6516 32 64.4383 32C64.2143 32 64.0329 31.9307 63.8943 31.792C63.7663 31.6427 63.7023 31.4667 63.7023 31.264V21.616C63.7023 21.3707 63.7823 21.1733 63.9423 21.024C64.1023 20.8747 64.2943 20.8 64.5182 20.8C64.6356 20.8 64.7583 20.8267 64.8863 20.88C65.0249 20.9227 65.1263 20.992 65.1903 21.088L71.6063 29.44L71.3663 29.664V21.552C71.3663 21.3387 71.4356 21.1627 71.5743 21.024C71.7129 20.8747 71.8889 20.8 72.1023 20.8ZM83.3246 27.792C83.3246 28.6453 83.138 29.4027 82.7646 30.064C82.3913 30.7147 81.8846 31.2267 81.2446 31.6C80.6046 31.9733 79.8846 32.16 79.0846 32.16C78.2846 32.16 77.5646 31.9733 76.9246 31.6C76.2846 31.2267 75.7726 30.7147 75.3886 30.064C75.0153 29.4027 74.8286 28.6453 74.8286 27.792C74.8286 26.928 75.0153 26.1707 75.3886 25.52C75.7726 24.8587 76.2846 24.3413 76.9246 23.968C77.5646 23.584 78.2846 23.392 79.0846 23.392C79.8846 23.392 80.6046 23.584 81.2446 23.968C81.8846 24.3413 82.3913 24.8587 82.7646 25.52C83.138 26.1707 83.3246 26.928 83.3246 27.792ZM81.7246 27.792C81.7246 27.2053 81.6073 26.6987 81.3726 26.272C81.138 25.8347 80.818 25.4933 80.4126 25.248C80.018 24.992 79.5753 24.864 79.0846 24.864C78.594 24.864 78.146 24.992 77.7406 25.248C77.3353 25.4933 77.0153 25.8347 76.7806 26.272C76.546 26.6987 76.4286 27.2053 76.4286 27.792C76.4286 28.3573 76.546 28.8587 76.7806 29.296C77.0153 29.7333 77.3353 30.0747 77.7406 30.32C78.146 30.5653 78.594 30.688 79.0846 30.688C79.5753 30.688 80.018 30.5653 80.4126 30.32C80.818 30.0747 81.138 29.7333 81.3726 29.296C81.6073 28.8587 81.7246 28.3573 81.7246 27.792ZM94.9436 23.504C95.1463 23.504 95.3223 23.584 95.4716 23.744C95.6316 23.8933 95.7116 24.0907 95.7116 24.336C95.7116 24.3893 95.7063 24.4427 95.6956 24.496C95.685 24.5493 95.669 24.5973 95.6476 24.64L93.1996 31.488C93.1356 31.6693 93.0236 31.808 92.8636 31.904C92.7036 31.9893 92.5383 32.0213 92.3676 32C92.0583 31.9787 91.829 31.808 91.6796 31.488L89.8716 26.688L90.2396 26.72L88.5756 31.488C88.4263 31.808 88.197 31.9787 87.8876 32C87.7276 32.0213 87.5623 31.9893 87.3916 31.904C87.2316 31.808 87.1196 31.6693 87.0556 31.488L84.5916 24.64C84.549 24.544 84.5276 24.4427 84.5276 24.336C84.5276 24.112 84.597 23.92 84.7356 23.76C84.885 23.5893 85.0823 23.504 85.3276 23.504C85.4983 23.504 85.6476 23.5467 85.7756 23.632C85.9143 23.7173 86.0103 23.8453 86.0636 24.016L88.1116 29.792L87.7436 29.76L89.4076 25.392C89.5463 25.0613 89.7916 24.896 90.1436 24.896C90.3356 24.896 90.485 24.9387 90.5916 25.024C90.6983 25.1093 90.7836 25.232 90.8476 25.392L92.5436 29.776L92.1116 29.824L94.1756 24.016C94.2823 23.6747 94.5383 23.504 94.9436 23.504Z" fill="white"/>
<path fill-rule="evenodd" clip-rule="evenodd" d="M108.5 26C108.5 25.5858 108.836 25.25 109.25 25.25H119.75C120.164 25.25 120.5 25.5858 120.5 26C120.5 26.4142 120.164 26.75 119.75 26.75H109.25C108.836 26.75 108.5 26.4142 108.5 26Z" fill="white"/>
<path fill-rule="evenodd" clip-rule="evenodd" d="M113.97 20.2197C114.263 19.9268 114.737 19.9268 115.03 20.2197L120.28 25.4697C120.573 25.7626 120.573 26.2374 120.28 26.5303L115.03 31.7803C114.737 32.0732 114.263 32.0732 113.97 31.7803C113.677 31.4874 113.677 31.0126 113.97 30.7197L118.689 26L113.97 21.2803C113.677 20.9874 113.677 20.5126 113.97 20.2197Z" fill="white"/>
</svg>
